<svg width="200" height="50" viewBox="0 0 200 50" fill="none" xmlns="http://www.w3.org/2000/svg">
  <rect width="50" height="50" rx="10" fill="#3B82F6"/>
  <path d="M15 25C15 19.4772 19.4772 15 25 15C30.5228 15 35 19.4772 35 25C35 30.5228 30.5228 35 25 35C19.4772 35 15 30.5228 15 25Z" fill="white"/>
  <path d="M25 20L27.5 25H22.5L25 20Z" fill="#3B82F6"/>
  <path d="M25 30L22.5 25H27.5L25 30Z" fill="#3B82F6"/>
  <path d="M60 20H65L70 35H65L64 32H61L60 35H55L60 20ZM63 28L62.5 26L62 28H63Z" fill="#374151"/>
  <path d="M75 20H80C85 20 85 35 80 35H75V20ZM80 30C82 30 82 25 80 25H80V30Z" fill="#374151"/>
  <path d="M90 20H95C100 20 100 35 95 35H90V20ZM95 30C97 30 97 25 95 25H95V30Z" fill="#374151"/>
  <path d="M110 25C110 22.2386 112.239 20 115 20H120C122.761 20 125 22.2386 125 25V30C125 32.7614 122.761 35 120 35H115C112.239 35 110 32.7614 110 30V25ZM115 30H120V25H115V30Z" fill="#374151"/>
  <path d="M130 20H135V30H140V35H130V20Z" fill="#374151"/>
  <path d="M145 35V20H150V35H145Z" fill="#374151"/>
  <path d="M155 20H160L165 28V20H170V35H165L160 27V35H155V20Z" fill="#374151"/>
  <path d="M175 25C175 22.2386 177.239 20 180 20H185C187.761 20 190 22.2386 190 25V30C190 32.7614 187.761 35 185 35H180C177.239 35 175 32.7614 175 30V25ZM180 30H185V25H180V30Z" fill="#374151"/>
</svg>
